{"glyphs":{"0":{"ha":624,"x_min":68,"x_max":556,"o":"m 149 920 l 475 920 l 475 865 l 149 865 l 149 920 m 68 920 l 122 920 l 122 475 l 68 475 l 68 920 m 502 920 l 556 920 l 556 475 l 502 475 l 502 920 m 122 0 l 68 0 l 68 448 l 122 448 l 122 0 m 502 448 l 556 448 l 556 0 l 502 0 l 502 448 m 149 54 l 475 54 l 475 0 l 149 0 l 149 54 z "},"1":{"ha":624,"x_min":285,"x_max":339,"o":"m 285 838 l 339 838 l 339 515 l 285 515 l 285 838 m 285 404 l 339 404 l 339 81 l 285 81 l 285 404 z "},"2":{"ha":624,"x_min":68,"x_max":556,"o":"m 149 920 l 475 920 l 475 865 l 149 865 l 149 920 m 502 920 l 556 920 l 556 475 l 502 475 l 502 920 m 149 54 l 475 54 l 475 0 l 149 0 l 149 54 m 122 0 l 68 0 l 68 448 l 122 448 l 122 0 m 149 488 l 475 488 l 475 434 l 149 434 l 149 488 z "},"3":{"ha":624,"x_min":149,"x_max":556,"o":"m 149 920 l 475 920 l 475 865 l 149 865 l 149 920 m 353 515 l 434 838 l 488 838 l 407 515 l 353 515 m 149 488 l 475 488 l 475 434 l 149 434 l 149 488 m 502 448 l 556 448 l 556 0 l 502 0 l 502 448 m 149 54 l 475 54 l 475 0 l 149 0 l 149 54 z "},"4":{"ha":624,"x_min":68,"x_max":475,"o":"m 68 920 l 122 920 l 122 475 l 68 475 l 68 920 m 285 838 l 339 838 l 339 515 l 285 515 l 285 838 m 149 488 l 475 488 l 475 434 l 149 434 l 149 488 m 285 404 l 339 404 l 339 81 l 285 81 l 285 404 z "},"5":{"ha":624,"x_min":68,"x_max":556,"o":"m 149 920 l 475 920 l 475 865 l 149 865 l 149 920 m 68 920 l 122 920 l 122 475 l 68 475 l 68 920 m 149 488 l 475 488 l 475 434 l 149 434 l 149 488 m 502 448 l 556 448 l 556 0 l 502 0 l 502 448 m 149 54 l 475 54 l 475 0 l 149 0 l 149 54 z "},"6":{"ha":624,"x_min":68,"x_max":556,"o":"m 149 920 l 475 920 l 475 865 l 149 865 l 149 920 m 68 920 l 122 920 l 122 475 l 68 475 l 68 920 m 149 488 l 475 488 l 475 434 l 149 434 l 149 488 m 122 0 l 68 0 l 68 448 l 122 448 l 122 0 m 502 448 l 556 448 l 556 0 l 502 0 l 502 448 m 149 54 l 475 54 l 475 0 l 149 0 l 149 54 z "},"7":{"ha":624,"x_min":136,"x_max":488,"o":"m 149 920 l 475 920 l 475 865 l 149 865 l 149 920 m 353 515 l 434 838 l 488 838 l 407 515 l 353 515 m 136 81 l 217 404 l 271 404 l 190 81 l 136 81 z "},"8":{"ha":624,"x_min":68,"x_max":556,"o":"m 149 920 l 475 920 l 475 865 l 149 865 l 149 920 m 68 920 l 122 920 l 122 475 l 68 475 l 68 920 m 502 920 l 556 920 l 556 475 l 502 475 l 502 920 m 149 488 l 475 488 l 475 434 l 149 434 l 149 488 m 122 0 l 68 0 l 68 448 l 122 448 l 122 0 m 502 448 l 556 448 l 556 0 l 502 0 l 502 448 m 149 54 l 475 54 l 475 0 l 149 0 l 149 54 z "},"9":{"ha":624,"x_min":68,"x_max":556,"o":"m 149 920 l 475 920 l 475 865 l 149 865 l 149 920 m 68 920 l 122 920 l 122 475 l 68 475 l 68 920 m 502 920 l 556 920 l 556 475 l 502 475 l 502 920 m 149 488 l 475 488 l 475 434 l 149 434 l 149 488 m 502 448 l 556 448 l 556 0 l 502 0 l 502 448 m 149 54 l 475 54 l 475 0 l 149 0 l 149 54 z "}," ":{"ha":624,"x_min":0,"x_max":0,"o":""},"":{"ha":624,"x_min":0,"x_max":556,"o":"m 68 920 l 122 920 l 122 475 l 68 475 l 68 920 m 149 920 l 475 920 l 475 865 l 149 865 l 149 920 m 136 838 l 190 838 l 271 515 l 217 515 l 136 838 m 285 838 l 339 838 l 339 515 l 285 515 l 285 838 m 353 515 l 434 838 l 488 838 l 407 515 l 353 515 m 502 920 l 556 920 l 556 475 l 502 475 l 502 920 m 149 488 l 475 488 l 475 434 l 149 434 l 149 488 m 122 0 l 68 0 l 68 448 l 122 448 l 122 0 m 136 81 l 217 404 l 271 404 l 190 81 l 136 81 m 285 404 l 339 404 l 339 81 l 285 81 l 285 404 m 353 404 l 407 404 l 488 81 l 434 81 l 353 404 m 502 448 l 556 448 l 556 0 l 502 0 l 502 448 m 149 54 l 475 54 l 475 0 l 149 0 l 149 54 m 26 488 q 46 480 37 488 q 54 461 54 472 q 46 442 54 450 q 26 433 37 433 q 7 442 15 433 q 0 461 0 450 q 7 480 0 472 q 26 488 15 488 m 26 54 q 46 46 37 54 q 54 28 54 39 q 46 8 54 17 q 26 0 37 0 q 7 8 15 0 q 0 28 0 17 q 7 46 0 39 q 26 54 15 54 m 2 -54 l 2 7 q 11 -5 7 -2 q 26 -7 15 -7 q 43 -3 37 -7 q 54 9 50 1 l 40 -35 l 2 -54 z "},"!":{"ha":624,"x_min":0,"x_max":122,"o":"m 26 54 q 46 46 37 54 q 54 28 54 39 q 46 8 54 17 q 26 0 37 0 q 7 8 15 0 q 0 28 0 17 q 7 46 0 39 q 26 54 15 54 m 68 920 l 122 920 l 122 475 l 68 475 l 68 920 z "},"\"":{"ha":624,"x_min":68,"x_max":556,"o":"m 68 920 l 122 920 l 122 475 l 68 475 l 68 920 m 502 920 l 556 920 l 556 475 l 502 475 l 502 920 z "},"#":{"ha":624,"x_min":68,"x_max":339,"o":"m 68 920 l 122 920 l 122 475 l 68 475 l 68 920 m 136 838 l 190 838 l 271 515 l 217 515 l 136 838 m 285 838 l 339 838 l 339 515 l 285 515 l 285 838 z "},"$":{"ha":624,"x_min":68,"x_max":556,"o":"m 149 920 l 475 920 l 475 865 l 149 865 l 149 920 m 68 920 l 122 920 l 122 475 l 68 475 l 68 920 m 285 838 l 339 838 l 339 515 l 285 515 l 285 838 m 149 488 l 475 488 l 475 434 l 149 434 l 149 488 m 285 404 l 339 404 l 339 81 l 285 81 l 285 404 m 502 448 l 556 448 l 556 0 l 502 0 l 502 448 m 149 54 l 475 54 l 475 0 l 149 0 l 149 54 z "},"%":{"ha":624,"x_min":68,"x_max":556,"o":"m 68 920 l 122 920 l 122 475 l 68 475 l 68 920 m 353 515 l 434 838 l 488 838 l 407 515 l 353 515 m 136 81 l 217 404 l 271 404 l 190 81 l 136 81 m 502 448 l 556 448 l 556 0 l 502 0 l 502 448 z "},"&":{"ha":624,"x_min":149,"x_max":475,"o":"m 285 838 l 339 838 l 339 515 l 285 515 l 285 838 m 149 488 l 475 488 l 475 434 l 149 434 l 149 488 m 285 404 l 339 404 l 339 81 l 285 81 l 285 404 z "},"+":{"ha":624,"x_min":149,"x_max":475,"o":"m 285 838 l 339 838 l 339 515 l 285 515 l 285 838 m 149 488 l 475 488 l 475 434 l 149 434 l 149 488 m 285 404 l 339 404 l 339 81 l 285 81 l 285 404 z "},"'":{"ha":624,"x_min":285,"x_max":339,"o":"m 285 838 l 339 838 l 339 515 l 285 515 l 285 838 z "},"(":{"ha":624,"x_min":353,"x_max":488,"o":"m 353 515 l 434 838 l 488 838 l 407 515 l 353 515 m 353 404 l 407 404 l 488 81 l 434 81 l 353 404 z "},"<":{"ha":624,"x_min":353,"x_max":488,"o":"m 353 515 l 434 838 l 488 838 l 407 515 l 353 515 m 353 404 l 407 404 l 488 81 l 434 81 l 353 404 z "},")":{"ha":624,"x_min":136,"x_max":271,"o":"m 136 838 l 190 838 l 271 515 l 217 515 l 136 838 m 136 81 l 217 404 l 271 404 l 190 81 l 136 81 z "},">":{"ha":624,"x_min":136,"x_max":271,"o":"m 136 838 l 190 838 l 271 515 l 217 515 l 136 838 m 136 81 l 217 404 l 271 404 l 190 81 l 136 81 z "},"*":{"ha":624,"x_min":136,"x_max":488,"o":"m 136 838 l 190 838 l 271 515 l 217 515 l 136 838 m 353 515 l 434 838 l 488 838 l 407 515 l 353 515 m 149 488 l 475 488 l 475 434 l 149 434 l 149 488 m 136 81 l 217 404 l 271 404 l 190 81 l 136 81 m 353 404 l 407 404 l 488 81 l 434 81 l 353 404 z "},",":{"ha":624,"x_min":0,"x_max":54,"o":"m 2 -54 l 2 7 q 11 -5 7 -2 q 26 -7 15 -7 q 43 -3 37 -7 q 54 9 50 1 l 40 -35 l 2 -54 m 26 54 q 46 46 37 54 q 54 28 54 39 q 46 8 54 17 q 26 0 37 0 q 7 8 15 0 q 0 28 0 17 q 7 46 0 39 q 26 54 15 54 z "},"-":{"ha":624,"x_min":149,"x_max":475,"o":"m 149 488 l 475 488 l 475 434 l 149 434 l 149 488 z "},".":{"ha":624,"x_min":0,"x_max":54,"o":"m 26 54 q 46 46 37 54 q 54 28 54 39 q 46 8 54 17 q 26 0 37 0 q 7 8 15 0 q 0 28 0 17 q 7 46 0 39 q 26 54 15 54 z "},"/":{"ha":624,"x_min":136,"x_max":488,"o":"m 353 515 l 434 838 l 488 838 l 407 515 l 353 515 m 136 81 l 217 404 l 271 404 l 190 81 l 136 81 z "},":":{"ha":624,"x_min":0,"x_max":54,"o":"m 26 488 q 46 480 37 488 q 54 461 54 472 q 46 442 54 450 q 26 433 37 433 q 7 442 15 433 q 0 461 0 450 q 7 480 0 472 q 26 488 15 488 m 26 54 q 46 46 37 54 q 54 28 54 39 q 46 8 54 17 q 26 0 37 0 q 7 8 15 0 q 0 28 0 17 q 7 46 0 39 q 26 54 15 54 z "},";":{"ha":624,"x_min":0,"x_max":54,"o":"m 2 -54 l 2 7 q 11 -5 7 -2 q 26 -7 15 -7 q 43 -3 37 -7 q 54 9 50 1 l 40 -35 l 2 -54 m 26 488 q 46 480 37 488 q 54 461 54 472 q 46 442 54 450 q 26 433 37 433 q 7 442 15 433 q 0 461 0 450 q 7 480 0 472 q 26 488 15 488 m 26 54 q 46 46 37 54 q 54 28 54 39 q 46 8 54 17 q 26 0 37 0 q 7 8 15 0 q 0 28 0 17 q 7 46 0 39 q 26 54 15 54 z "},"=":{"ha":624,"x_min":149,"x_max":475,"o":"m 149 488 l 475 488 l 475 434 l 149 434 l 149 488 m 149 54 l 475 54 l 475 0 l 149 0 l 149 54 z "},"?":{"ha":624,"x_min":68,"x_max":556,"o":"m 149 920 l 475 920 l 475 865 l 149 865 l 149 920 m 502 920 l 556 920 l 556 475 l 502 475 l 502 920 m 149 488 l 475 488 l 475 434 l 149 434 l 149 488 m 122 0 l 68 0 l 68 448 l 122 448 l 122 0 z "},"@":{"ha":624,"x_min":68,"x_max":556,"o":"m 149 920 l 475 920 l 475 865 l 149 865 l 149 920 m 68 920 l 122 920 l 122 475 l 68 475 l 68 920 m 502 920 l 556 920 l 556 475 l 502 475 l 502 920 m 136 81 l 217 404 l 271 404 l 190 81 l 136 81 m 353 404 l 407 404 l 488 81 l 434 81 l 353 404 m 502 448 l 556 448 l 556 0 l 502 0 l 502 448 m 149 54 l 475 54 l 475 0 l 149 0 l 149 54 z "},"A":{"ha":624,"x_min":68,"x_max":556,"o":"m 149 920 l 475 920 l 475 865 l 149 865 l 149 920 m 68 920 l 122 920 l 122 475 l 68 475 l 68 920 m 502 920 l 556 920 l 556 475 l 502 475 l 502 920 m 149 488 l 475 488 l 475 434 l 149 434 l 149 488 m 122 0 l 68 0 l 68 448 l 122 448 l 122 0 m 502 448 l 556 448 l 556 0 l 502 0 l 502 448 z "},"a":{"ha":624,"x_min":68,"x_max":556,"o":"m 149 920 l 475 920 l 475 865 l 149 865 l 149 920 m 68 920 l 122 920 l 122 475 l 68 475 l 68 920 m 502 920 l 556 920 l 556 475 l 502 475 l 502 920 m 149 488 l 475 488 l 475 434 l 149 434 l 149 488 m 122 0 l 68 0 l 68 448 l 122 448 l 122 0 m 502 448 l 556 448 l 556 0 l 502 0 l 502 448 z "},"B":{"ha":624,"x_min":68,"x_max":488,"o":"m 149 920 l 475 920 l 475 865 l 149 865 l 149 920 m 68 920 l 122 920 l 122 475 l 68 475 l 68 920 m 353 515 l 434 838 l 488 838 l 407 515 l 353 515 m 122 0 l 68 0 l 68 448 l 122 448 l 122 0 m 353 404 l 407 404 l 488 81 l 434 81 l 353 404 m 149 54 l 475 54 l 475 0 l 149 0 l 149 54 z "},"b":{"ha":624,"x_min":68,"x_max":488,"o":"m 149 920 l 475 920 l 475 865 l 149 865 l 149 920 m 68 920 l 122 920 l 122 475 l 68 475 l 68 920 m 353 515 l 434 838 l 488 838 l 407 515 l 353 515 m 122 0 l 68 0 l 68 448 l 122 448 l 122 0 m 353 404 l 407 404 l 488 81 l 434 81 l 353 404 m 149 54 l 475 54 l 475 0 l 149 0 l 149 54 z "},"C":{"ha":624,"x_min":68,"x_max":475,"o":"m 149 920 l 475 920 l 475 865 l 149 865 l 149 920 m 68 920 l 122 920 l 122 475 l 68 475 l 68 920 m 122 0 l 68 0 l 68 448 l 122 448 l 122 0 m 149 54 l 475 54 l 475 0 l 149 0 l 149 54 z "},"c":{"ha":624,"x_min":68,"x_max":475,"o":"m 149 920 l 475 920 l 475 865 l 149 865 l 149 920 m 68 920 l 122 920 l 122 475 l 68 475 l 68 920 m 122 0 l 68 0 l 68 448 l 122 448 l 122 0 m 149 54 l 475 54 l 475 0 l 149 0 l 149 54 z "},"D":{"ha":624,"x_min":68,"x_max":556,"o":"m 149 920 l 475 920 l 475 865 l 149 865 l 149 920 m 285 838 l 339 838 l 339 515 l 285 515 l 285 838 m 502 920 l 556 920 l 556 475 l 502 475 l 502 920 m 285 404 l 339 404 l 339 81 l 285 81 l 285 404 m 502 448 l 556 448 l 556 0 l 502 0 l 502 448 m 149 54 l 475 54 l 475 0 l 149 0 l 149 54 z "},"d":{"ha":624,"x_min":68,"x_max":556,"o":"m 149 920 l 475 920 l 475 865 l 149 865 l 149 920 m 285 838 l 339 838 l 339 515 l 285 515 l 285 838 m 502 920 l 556 920 l 556 475 l 502 475 l 502 920 m 285 404 l 339 404 l 339 81 l 285 81 l 285 404 m 502 448 l 556 448 l 556 0 l 502 0 l 502 448 m 149 54 l 475 54 l 475 0 l 149 0 l 149 54 z "},"E":{"ha":624,"x_min":68,"x_max":475,"o":"m 149 920 l 475 920 l 475 865 l 149 865 l 149 920 m 68 920 l 122 920 l 122 475 l 68 475 l 68 920 m 149 488 l 475 488 l 475 434 l 149 434 l 149 488 m 122 0 l 68 0 l 68 448 l 122 448 l 122 0 m 149 54 l 475 54 l 475 0 l 149 0 l 149 54 z "},"e":{"ha":624,"x_min":68,"x_max":475,"o":"m 149 920 l 475 920 l 475 865 l 149 865 l 149 920 m 68 920 l 122 920 l 122 475 l 68 475 l 68 920 m 149 488 l 475 488 l 475 434 l 149 434 l 149 488 m 122 0 l 68 0 l 68 448 l 122 448 l 122 0 m 149 54 l 475 54 l 475 0 l 149 0 l 149 54 z "},"F":{"ha":624,"x_min":68,"x_max":475,"o":"m 149 920 l 475 920 l 475 865 l 149 865 l 149 920 m 68 920 l 122 920 l 122 475 l 68 475 l 68 920 m 149 488 l 475 488 l 475 434 l 149 434 l 149 488 m 122 0 l 68 0 l 68 448 l 122 448 l 122 0 z "},"f":{"ha":624,"x_min":68,"x_max":475,"o":"m 149 920 l 475 920 l 475 865 l 149 865 l 149 920 m 68 920 l 122 920 l 122 475 l 68 475 l 68 920 m 149 488 l 475 488 l 475 434 l 149 434 l 149 488 m 122 0 l 68 0 l 68 448 l 122 448 l 122 0 z "},"G":{"ha":624,"x_min":68,"x_max":556,"o":"m 149 920 l 475 920 l 475 865 l 149 865 l 149 920 m 68 920 l 122 920 l 122 475 l 68 475 l 68 920 m 122 0 l 68 0 l 68 448 l 122 448 l 122 0 m 502 448 l 556 448 l 556 0 l 502 0 l 502 448 m 149 54 l 475 54 l 475 0 l 149 0 l 149 54 z "},"g":{"ha":624,"x_min":68,"x_max":556,"o":"m 149 920 l 475 920 l 475 865 l 149 865 l 149 920 m 68 920 l 122 920 l 122 475 l 68 475 l 68 920 m 122 0 l 68 0 l 68 448 l 122 448 l 122 0 m 502 448 l 556 448 l 556 0 l 502 0 l 502 448 m 149 54 l 475 54 l 475 0 l 149 0 l 149 54 z "},"H":{"ha":624,"x_min":68,"x_max":556,"o":"m 68 920 l 122 920 l 122 475 l 68 475 l 68 920 m 502 920 l 556 920 l 556 475 l 502 475 l 502 920 m 149 488 l 475 488 l 475 434 l 149 434 l 149 488 m 122 0 l 68 0 l 68 448 l 122 448 l 122 0 m 502 448 l 556 448 l 556 0 l 502 0 l 502 448 z "},"h":{"ha":624,"x_min":68,"x_max":556,"o":"m 68 920 l 122 920 l 122 475 l 68 475 l 68 920 m 502 920 l 556 920 l 556 475 l 502 475 l 502 920 m 149 488 l 475 488 l 475 434 l 149 434 l 149 488 m 122 0 l 68 0 l 68 448 l 122 448 l 122 0 m 502 448 l 556 448 l 556 0 l 502 0 l 502 448 z "},"I":{"ha":624,"x_min":149,"x_max":475,"o":"m 149 920 l 475 920 l 475 865 l 149 865 l 149 920 m 285 838 l 339 838 l 339 515 l 285 515 l 285 838 m 285 404 l 339 404 l 339 81 l 285 81 l 285 404 m 149 54 l 475 54 l 475 0 l 149 0 l 149 54 z "},"i":{"ha":624,"x_min":149,"x_max":475,"o":"m 149 920 l 475 920 l 475 865 l 149 865 l 149 920 m 285 838 l 339 838 l 339 515 l 285 515 l 285 838 m 285 404 l 339 404 l 339 81 l 285 81 l 285 404 m 149 54 l 475 54 l 475 0 l 149 0 l 149 54 z "},"J":{"ha":624,"x_min":68,"x_max":556,"o":"m 502 920 l 556 920 l 556 475 l 502 475 l 502 920 m 122 0 l 68 0 l 68 448 l 122 448 l 122 0 m 502 448 l 556 448 l 556 0 l 502 0 l 502 448 m 149 54 l 475 54 l 475 0 l 149 0 l 149 54 z "},"j":{"ha":624,"x_min":68,"x_max":556,"o":"m 502 920 l 556 920 l 556 475 l 502 475 l 502 920 m 122 0 l 68 0 l 68 448 l 122 448 l 122 0 m 502 448 l 556 448 l 556 0 l 502 0 l 502 448 m 149 54 l 475 54 l 475 0 l 149 0 l 149 54 z "},"K":{"ha":624,"x_min":68,"x_max":488,"o":"m 68 920 l 122 920 l 122 475 l 68 475 l 68 920 m 353 515 l 434 838 l 488 838 l 407 515 l 353 515 m 122 0 l 68 0 l 68 448 l 122 448 l 122 0 m 353 404 l 407 404 l 488 81 l 434 81 l 353 404 z "},"k":{"ha":624,"x_min":68,"x_max":488,"o":"m 68 920 l 122 920 l 122 475 l 68 475 l 68 920 m 353 515 l 434 838 l 488 838 l 407 515 l 353 515 m 122 0 l 68 0 l 68 448 l 122 448 l 122 0 m 353 404 l 407 404 l 488 81 l 434 81 l 353 404 z "},"L":{"ha":624,"x_min":68,"x_max":475,"o":"m 68 920 l 122 920 l 122 475 l 68 475 l 68 920 m 122 0 l 68 0 l 68 448 l 122 448 l 122 0 m 149 54 l 475 54 l 475 0 l 149 0 l 149 54 z "},"l":{"ha":624,"x_min":68,"x_max":475,"o":"m 68 920 l 122 920 l 122 475 l 68 475 l 68 920 m 122 0 l 68 0 l 68 448 l 122 448 l 122 0 m 149 54 l 475 54 l 475 0 l 149 0 l 149 54 z "},"M":{"ha":624,"x_min":68,"x_max":556,"o":"m 68 920 l 122 920 l 122 475 l 68 475 l 68 920 m 136 838 l 190 838 l 271 515 l 217 515 l 136 838 m 353 515 l 434 838 l 488 838 l 407 515 l 353 515 m 502 920 l 556 920 l 556 475 l 502 475 l 502 920 m 122 0 l 68 0 l 68 448 l 122 448 l 122 0 m 502 448 l 556 448 l 556 0 l 502 0 l 502 448 z "},"m":{"ha":624,"x_min":68,"x_max":556,"o":"m 68 920 l 122 920 l 122 475 l 68 475 l 68 920 m 136 838 l 190 838 l 271 515 l 217 515 l 136 838 m 353 515 l 434 838 l 488 838 l 407 515 l 353 515 m 502 920 l 556 920 l 556 475 l 502 475 l 502 920 m 122 0 l 68 0 l 68 448 l 122 448 l 122 0 m 502 448 l 556 448 l 556 0 l 502 0 l 502 448 z "},"N":{"ha":624,"x_min":68,"x_max":556,"o":"m 68 920 l 122 920 l 122 475 l 68 475 l 68 920 m 136 838 l 190 838 l 271 515 l 217 515 l 136 838 m 502 920 l 556 920 l 556 475 l 502 475 l 502 920 m 122 0 l 68 0 l 68 448 l 122 448 l 122 0 m 353 404 l 407 404 l 488 81 l 434 81 l 353 404 m 502 448 l 556 448 l 556 0 l 502 0 l 502 448 z "},"n":{"ha":624,"x_min":68,"x_max":556,"o":"m 68 920 l 122 920 l 122 475 l 68 475 l 68 920 m 136 838 l 190 838 l 271 515 l 217 515 l 136 838 m 502 920 l 556 920 l 556 475 l 502 475 l 502 920 m 122 0 l 68 0 l 68 448 l 122 448 l 122 0 m 353 404 l 407 404 l 488 81 l 434 81 l 353 404 m 502 448 l 556 448 l 556 0 l 502 0 l 502 448 z "},"O":{"ha":624,"x_min":68,"x_max":556,"o":"m 149 920 l 475 920 l 475 865 l 149 865 l 149 920 m 68 920 l 122 920 l 122 475 l 68 475 l 68 920 m 502 920 l 556 920 l 556 475 l 502 475 l 502 920 m 122 0 l 68 0 l 68 448 l 122 448 l 122 0 m 502 448 l 556 448 l 556 0 l 502 0 l 502 448 m 149 54 l 475 54 l 475 0 l 149 0 l 149 54 z "},"o":{"ha":624,"x_min":68,"x_max":556,"o":"m 149 920 l 475 920 l 475 865 l 149 865 l 149 920 m 68 920 l 122 920 l 122 475 l 68 475 l 68 920 m 502 920 l 556 920 l 556 475 l 502 475 l 502 920 m 122 0 l 68 0 l 68 448 l 122 448 l 122 0 m 502 448 l 556 448 l 556 0 l 502 0 l 502 448 m 149 54 l 475 54 l 475 0 l 149 0 l 149 54 z "},"P":{"ha":624,"x_min":68,"x_max":556,"o":"m 149 920 l 475 920 l 475 865 l 149 865 l 149 920 m 68 920 l 122 920 l 122 475 l 68 475 l 68 920 m 502 920 l 556 920 l 556 475 l 502 475 l 502 920 m 149 488 l 475 488 l 475 434 l 149 434 l 149 488 m 122 0 l 68 0 l 68 448 l 122 448 l 122 0 z "},"p":{"ha":624,"x_min":68,"x_max":556,"o":"m 149 920 l 475 920 l 475 865 l 149 865 l 149 920 m 68 920 l 122 920 l 122 475 l 68 475 l 68 920 m 502 920 l 556 920 l 556 475 l 502 475 l 502 920 m 149 488 l 475 488 l 475 434 l 149 434 l 149 488 m 122 0 l 68 0 l 68 448 l 122 448 l 122 0 z "},"Q":{"ha":624,"x_min":68,"x_max":556,"o":"m 149 920 l 475 920 l 475 865 l 149 865 l 149 920 m 68 920 l 122 920 l 122 475 l 68 475 l 68 920 m 502 920 l 556 920 l 556 475 l 502 475 l 502 920 m 122 0 l 68 0 l 68 448 l 122 448 l 122 0 m 353 404 l 407 404 l 488 81 l 434 81 l 353 404 m 502 448 l 556 448 l 556 0 l 502 0 l 502 448 m 149 54 l 475 54 l 475 0 l 149 0 l 149 54 z "},"q":{"ha":624,"x_min":68,"x_max":556,"o":"m 149 920 l 475 920 l 475 865 l 149 865 l 149 920 m 68 920 l 122 920 l 122 475 l 68 475 l 68 920 m 502 920 l 556 920 l 556 475 l 502 475 l 502 920 m 122 0 l 68 0 l 68 448 l 122 448 l 122 0 m 353 404 l 407 404 l 488 81 l 434 81 l 353 404 m 502 448 l 556 448 l 556 0 l 502 0 l 502 448 m 149 54 l 475 54 l 475 0 l 149 0 l 149 54 z "},"R":{"ha":624,"x_min":68,"x_max":556,"o":"m 149 920 l 475 920 l 475 865 l 149 865 l 149 920 m 68 920 l 122 920 l 122 475 l 68 475 l 68 920 m 502 920 l 556 920 l 556 475 l 502 475 l 502 920 m 149 488 l 475 488 l 475 434 l 149 434 l 149 488 m 122 0 l 68 0 l 68 448 l 122 448 l 122 0 m 353 404 l 407 404 l 488 81 l 434 81 l 353 404 z "},"r":{"ha":624,"x_min":68,"x_max":556,"o":"m 149 920 l 475 920 l 475 865 l 149 865 l 149 920 m 68 920 l 122 920 l 122 475 l 68 475 l 68 920 m 502 920 l 556 920 l 556 475 l 502 475 l 502 920 m 149 488 l 475 488 l 475 434 l 149 434 l 149 488 m 122 0 l 68 0 l 68 448 l 122 448 l 122 0 m 353 404 l 407 404 l 488 81 l 434 81 l 353 404 z "},"S":{"ha":624,"x_min":68,"x_max":556,"o":"m 149 920 l 475 920 l 475 865 l 149 865 l 149 920 m 68 920 l 122 920 l 122 475 l 68 475 l 68 920 m 149 488 l 475 488 l 475 434 l 149 434 l 149 488 m 149 54 l 475 54 l 475 0 l 149 0 l 149 54 m 502 448 l 556 448 l 556 0 l 502 0 l 502 448 z "},"s":{"ha":624,"x_min":68,"x_max":556,"o":"m 149 920 l 475 920 l 475 865 l 149 865 l 149 920 m 68 920 l 122 920 l 122 475 l 68 475 l 68 920 m 149 488 l 475 488 l 475 434 l 149 434 l 149 488 m 149 54 l 475 54 l 475 0 l 149 0 l 149 54 m 502 448 l 556 448 l 556 0 l 502 0 l 502 448 z "},"T":{"ha":624,"x_min":149,"x_max":475,"o":"m 149 920 l 475 920 l 475 865 l 149 865 l 149 920 m 285 838 l 339 838 l 339 515 l 285 515 l 285 838 m 285 404 l 339 404 l 339 81 l 285 81 l 285 404 z "},"t":{"ha":624,"x_min":149,"x_max":475,"o":"m 149 920 l 475 920 l 475 865 l 149 865 l 149 920 m 285 838 l 339 838 l 339 515 l 285 515 l 285 838 m 285 404 l 339 404 l 339 81 l 285 81 l 285 404 z "},"U":{"ha":624,"x_min":68,"x_max":556,"o":"m 68 920 l 122 920 l 122 475 l 68 475 l 68 920 m 502 920 l 556 920 l 556 475 l 502 475 l 502 920 m 122 0 l 68 0 l 68 448 l 122 448 l 122 0 m 502 448 l 556 448 l 556 0 l 502 0 l 502 448 m 149 54 l 475 54 l 475 0 l 149 0 l 149 54 z "},"u":{"ha":624,"x_min":68,"x_max":556,"o":"m 68 920 l 122 920 l 122 475 l 68 475 l 68 920 m 502 920 l 556 920 l 556 475 l 502 475 l 502 920 m 122 0 l 68 0 l 68 448 l 122 448 l 122 0 m 502 448 l 556 448 l 556 0 l 502 0 l 502 448 m 149 54 l 475 54 l 475 0 l 149 0 l 149 54 z "},"V":{"ha":624,"x_min":68,"x_max":488,"o":"m 68 920 l 122 920 l 122 475 l 68 475 l 68 920 m 353 515 l 434 838 l 488 838 l 407 515 l 353 515 m 122 0 l 68 0 l 68 448 l 122 448 l 122 0 m 136 81 l 217 404 l 271 404 l 190 81 l 136 81 z "},"v":{"ha":624,"x_min":68,"x_max":488,"o":"m 68 920 l 122 920 l 122 475 l 68 475 l 68 920 m 353 515 l 434 838 l 488 838 l 407 515 l 353 515 m 122 0 l 68 0 l 68 448 l 122 448 l 122 0 m 136 81 l 217 404 l 271 404 l 190 81 l 136 81 z "},"W":{"ha":624,"x_min":68,"x_max":556,"o":"m 68 920 l 122 920 l 122 475 l 68 475 l 68 920 m 502 920 l 556 920 l 556 475 l 502 475 l 502 920 m 122 0 l 68 0 l 68 448 l 122 448 l 122 0 m 136 81 l 217 404 l 271 404 l 190 81 l 136 81 m 353 404 l 407 404 l 488 81 l 434 81 l 353 404 m 502 448 l 556 448 l 556 0 l 502 0 l 502 448 z "},"w":{"ha":624,"x_min":68,"x_max":556,"o":"m 68 920 l 122 920 l 122 475 l 68 475 l 68 920 m 502 920 l 556 920 l 556 475 l 502 475 l 502 920 m 122 0 l 68 0 l 68 448 l 122 448 l 122 0 m 136 81 l 217 404 l 271 404 l 190 81 l 136 81 m 353 404 l 407 404 l 488 81 l 434 81 l 353 404 m 502 448 l 556 448 l 556 0 l 502 0 l 502 448 z "},"X":{"ha":624,"x_min":136,"x_max":488,"o":"m 136 838 l 190 838 l 271 515 l 217 515 l 136 838 m 353 515 l 434 838 l 488 838 l 407 515 l 353 515 m 136 81 l 217 404 l 271 404 l 190 81 l 136 81 m 353 404 l 407 404 l 488 81 l 434 81 l 353 404 z "},"x":{"ha":624,"x_min":136,"x_max":488,"o":"m 136 838 l 190 838 l 271 515 l 217 515 l 136 838 m 353 515 l 434 838 l 488 838 l 407 515 l 353 515 m 136 81 l 217 404 l 271 404 l 190 81 l 136 81 m 353 404 l 407 404 l 488 81 l 434 81 l 353 404 z "},"Y":{"ha":624,"x_min":136,"x_max":488,"o":"m 136 838 l 190 838 l 271 515 l 217 515 l 136 838 m 353 515 l 434 838 l 488 838 l 407 515 l 353 515 m 285 404 l 339 404 l 339 81 l 285 81 l 285 404 z "},"y":{"ha":624,"x_min":136,"x_max":488,"o":"m 136 838 l 190 838 l 271 515 l 217 515 l 136 838 m 353 515 l 434 838 l 488 838 l 407 515 l 353 515 m 285 404 l 339 404 l 339 81 l 285 81 l 285 404 z "},"Z":{"ha":624,"x_min":136,"x_max":488,"o":"m 149 920 l 475 920 l 475 865 l 149 865 l 149 920 m 353 515 l 434 838 l 488 838 l 407 515 l 353 515 m 136 81 l 217 404 l 271 404 l 190 81 l 136 81 m 149 54 l 475 54 l 475 0 l 149 0 l 149 54 z "},"z":{"ha":624,"x_min":136,"x_max":488,"o":"m 149 920 l 475 920 l 475 865 l 149 865 l 149 920 m 353 515 l 434 838 l 488 838 l 407 515 l 353 515 m 136 81 l 217 404 l 271 404 l 190 81 l 136 81 m 149 54 l 475 54 l 475 0 l 149 0 l 149 54 z "},"[":{"ha":624,"x_min":68,"x_max":475,"o":"m 149 920 l 475 920 l 475 865 l 149 865 l 149 920 m 68 920 l 122 920 l 122 475 l 68 475 l 68 920 m 122 0 l 68 0 l 68 448 l 122 448 l 122 0 m 149 54 l 475 54 l 475 0 l 149 0 l 149 54 z "},"\\":{"ha":624,"x_min":136,"x_max":488,"o":"m 136 838 l 190 838 l 271 515 l 217 515 l 136 838 m 353 404 l 407 404 l 488 81 l 434 81 l 353 404 z "},"]":{"ha":624,"x_min":149,"x_max":556,"o":"m 149 920 l 475 920 l 475 865 l 149 865 l 149 920 m 502 920 l 556 920 l 556 475 l 502 475 l 502 920 m 502 448 l 556 448 l 556 0 l 502 0 l 502 448 m 149 54 l 475 54 l 475 0 l 149 0 l 149 54 z "},"^":{"ha":624,"x_min":68,"x_max":556,"o":"m 149 920 l 475 920 l 475 865 l 149 865 l 149 920 m 68 920 l 122 920 l 122 475 l 68 475 l 68 920 m 502 920 l 556 920 l 556 475 l 502 475 l 502 920 z "},"_":{"ha":624,"x_min":149,"x_max":475,"o":"m 149 54 l 475 54 l 475 0 l 149 0 l 149 54 z "},"`":{"ha":624,"x_min":136,"x_max":271,"o":"m 136 838 l 190 838 l 271 515 l 217 515 l 136 838 z "},"{":{"ha":624,"x_min":136,"x_max":475,"o":"m 149 920 l 475 920 l 475 865 l 149 865 l 149 920 m 136 838 l 190 838 l 271 515 l 217 515 l 136 838 m 136 81 l 217 404 l 271 404 l 190 81 l 136 81 m 149 54 l 475 54 l 475 0 l 149 0 l 149 54 z "},"|":{"ha":624,"x_min":285,"x_max":339,"o":"m 285 838 l 339 838 l 339 515 l 285 515 l 285 838 m 285 404 l 339 404 l 339 81 l 285 81 l 285 404 z "},"}":{"ha":624,"x_min":149,"x_max":488,"o":"m 149 920 l 475 920 l 475 865 l 149 865 l 149 920 m 353 515 l 434 838 l 488 838 l 407 515 l 353 515 m 353 404 l 407 404 l 488 81 l 434 81 l 353 404 m 149 54 l 475 54 l 475 0 l 149 0 l 149 54 z "},"~":{"ha":624,"x_min":68,"x_max":488,"o":"m 68 920 l 122 920 l 122 475 l 68 475 l 68 920 m 136 838 l 190 838 l 271 515 l 217 515 l 136 838 m 353 515 l 434 838 l 488 838 l 407 515 l 353 515 z "}}}
